name rise35.5848peak51.9257fall54.8793.mot
datacolumns 19
datarows 20
range 11.32995300000000 11.36162200000000
endheader
time	ground_force1_vx	ground_force1_vy	ground_force1_vz	ground_force1_px	ground_force1_py	ground_force1_pz	ground_force2_vx	ground_force2_vy	ground_force2_vz	ground_force2_px	ground_force2_py	ground_force2_pz	ground_torque1_x	ground_torque1_y	ground_torque1_z	ground_torque2_x	ground_torque2_y	ground_torque2_z	
11.32995300000000	-49.81987000000000	829.69624399999998	58.77463200000000	0.08418500000000	0.00000000000000	0.11786400000000	-4.67236800000000	16.22171700000000	4.54881600000000	0.00000000000000	0.00000000000000	0.00000000000000	0.00000000000000	20.16356400000000	0.00000000000000	0.00000000000000	1.41635000000000	0.00000000000000	
11.33162400000000	-49.99277000000000	827.90084300000001	58.52492600000000	0.08380100000000	0.00000000000000	0.11780800000000	-5.92851500000000	21.42557500000000	5.87462100000000	0.00000000000000	0.00000000000000	0.00000000000000	0.00000000000000	20.09958200000000	0.00000000000000	0.00000000000000	1.83435500000000	0.00000000000000	
11.33328100000000	-50.17987500000000	825.97288500000002	58.25072400000000	0.08342600000000	0.00000000000000	0.11775000000000	-7.21258200000000	27.03638500000000	7.26399000000000	0.32090400000000	0.00000000000000	-0.03772000000000	0.00000000000000	20.03792500000000	0.00000000000000	0.00000000000000	4.33306000000000	0.00000000000000	
11.33495500000000	-50.38184900000000	823.91092400000002	57.95183000000000	0.08305800000000	0.00000000000000	0.11769000000000	-8.47919500000000	32.92644300000000	8.67561000000000	0.32441100000000	0.00000000000000	-0.03814300000000	0.00000000000000	19.97871900000000	0.00000000000000	0.00000000000000	5.21386400000000	0.00000000000000	
11.33661800000000	-50.59930000000000	821.71359099999995	57.62808700000000	0.08269800000000	0.00000000000000	0.11762900000000	-9.68380000000000	38.96326800000000	10.06788400000000	0.32761900000000	0.00000000000000	-0.03854600000000	0.00000000000000	19.92207900000000	0.00000000000000	0.00000000000000	6.09295600000000	0.00000000000000	
11.33830000000000	-50.83278100000000	819.37959400000000	57.27938200000000	0.08234500000000	0.00000000000000	0.11756500000000	-10.78594600000000	45.02029600000000	11.40204900000000	0.33056400000000	0.00000000000000	-0.03893300000000	0.00000000000000	19.86810200000000	0.00000000000000	0.00000000000000	6.94620300000000	0.00000000000000	
11.33996800000000	-51.08278000000000	816.90771600000005	56.90564600000000	0.08199800000000	0.00000000000000	0.11749900000000	-11.75197500000000	50.98621000000000	12.64481300000000	0.33327600000000	0.00000000000000	-0.03930500000000	0.00000000000000	19.81687000000000	0.00000000000000	0.00000000000000	7.75245900000000	0.00000000000000	
11.34161900000000	-51.34972000000000	814.29681400000004	56.50685200000000	0.08165800000000	0.00000000000000	0.11743100000000	-12.55685800000000	56.77192700000000	13.77024200000000	0.33578000000000	0.00000000000000	-0.03966600000000	0.00000000000000	19.76844700000000	0.00000000000000	0.00000000000000	8.49481900000000	0.00000000000000	
11.34328600000000	-51.63395500000000	811.54581800000005	56.08301900000000	0.08132400000000	0.00000000000000	0.11736100000000	-13.18507600000000	62.31477900000000	14.76077600000000	0.33809900000000	0.00000000000000	-0.04001800000000	0.00000000000000	19.72288300000000	0.00000000000000	0.00000000000000	9.16135300000000	0.00000000000000	
11.34495600000000	-51.93576600000000	808.65372700000000	55.63421000000000	0.08099500000000	0.00000000000000	0.11728900000000	-13.63059300000000	67.57989000000001	15.60741500000000	0.34024900000000	0.00000000000000	-0.04036100000000	0.00000000000000	19.68020600000000	0.00000000000000	0.00000000000000	9.74532500000000	0.00000000000000	
11.34661600000000	-52.25535400000000	805.61960899999997	55.16053000000000	0.08067200000000	0.00000000000000	0.11721500000000	-13.89605600000000	72.55903900000000	16.30917000000000	0.34224800000000	0.00000000000000	-0.04069900000000	0.00000000000000	19.64042700000000	0.00000000000000	0.00000000000000	10.24494200000000	0.00000000000000	
11.34828800000000	-52.59284200000000	802.44260099999997	54.66212900000000	0.08035200000000	0.00000000000000	0.11713800000000	-13.99141700000000	77.26752800000000	16.87194600000000	0.34410700000000	0.00000000000000	-0.04103100000000	0.00000000000000	19.60354000000000	0.00000000000000	0.00000000000000	10.66274200000000	0.00000000000000	
11.34995000000000	-52.94826900000000	799.12190499999997	54.13920000000000	0.08003800000000	0.00000000000000	0.11705900000000	-13.93219300000000	81.73965600000000	17.30705200000000	0.34583800000000	0.00000000000000	-0.04136000000000	0.00000000000000	19.56951700000000	0.00000000000000	0.00000000000000	11.00472600000000	0.00000000000000	
11.35161900000000	-53.32158700000000	795.65678700000001	53.59197800000000	0.07972600000000	0.00000000000000	0.11697800000000	-13.73756000000000	86.02341400000000	17.62953000000000	0.34745200000000	0.00000000000000	-0.04168600000000	0.00000000000000	19.53831200000000	0.00000000000000	0.00000000000000	11.27935400000000	0.00000000000000	
11.35329700000000	-53.71265600000000	792.04657799999995	53.02074200000000	0.07941800000000	0.00000000000000	0.11689500000000	-13.42848300000000	90.17498100000000	17.85646300000000	0.34895700000000	0.00000000000000	-0.04200900000000	0.00000000000000	19.50985800000000	0.00000000000000	0.00000000000000	11.49651500000000	0.00000000000000	
11.35495500000000	-54.12124600000000	788.29066799999998	52.42581200000000	0.07911300000000	0.00000000000000	0.11680900000000	-13.02601300000000	94.25349300000001	18.00540600000000	0.35035900000000	0.00000000000000	-0.04233100000000	0.00000000000000	19.48406700000000	0.00000000000000	0.00000000000000	11.66655200000000	0.00000000000000	
11.35662300000000	-54.54702900000000	784.38851199999999	51.80754700000000	0.07880900000000	0.00000000000000	0.11672100000000	-12.54986800000000	98.31646600000001	18.09305400000000	0.35166700000000	0.00000000000000	-0.04265200000000	0.00000000000000	19.46083200000000	0.00000000000000	0.00000000000000	11.79942100000000	0.00000000000000	
11.35830000000000	-54.98958400000000	780.33962099999997	51.16634800000000	0.07850700000000	0.00000000000000	0.11663000000000	-12.01735600000000	102.41611500000000	18.13419600000000	0.35288400000000	0.00000000000000	-0.04297200000000	0.00000000000000	19.44002600000000	0.00000000000000	0.00000000000000	11.90402200000000	0.00000000000000	
11.35994900000000	-55.44838500000000	776.14356799999996	50.50265600000000	0.07820600000000	0.00000000000000	0.11653700000000	-11.44266200000000	106.59669400000000	18.14100000000000	0.35401600000000	0.00000000000000	-0.04329200000000	0.00000000000000	19.42149900000000	0.00000000000000	0.00000000000000	11.98773100000000	0.00000000000000	
11.36162200000000	-55.92280800000000	771.79998200000000	49.81694700000000	0.07790500000000	0.00000000000000	0.11644200000000	-10.83649400000000	110.89288000000001	18.12261200000000	0.35506600000000	0.00000000000000	-0.04361200000000	0.00000000000000	19.40508200000000	0.00000000000000	0.00000000000000	12.05612300000000	0.00000000000000	
